<?xml version="1.0" encoding="utf-8"?>
<!-- Generator: Adobe Illustrator 23.0.3, SVG Export Plug-In . SVG Version: 6.00 Build 0)  -->
<svg version="1.1" id="Layer_1" xmlns="http://www.w3.org/2000/svg" xmlns:xlink="http://www.w3.org/1999/xlink" x="0px" y="0px"
	 viewBox="0 0 32 32" style="enable-background:new 0 0 32 32;" xml:space="preserve">
<style type="text/css">
	.Blue{fill:#1177D7;}
	.Red{fill:#D11C1C;}
	.Green{fill:#039C23;}
	.Black{fill:#727272;}
</style>
<rect y="14" class="Green" width="6" height="12"/>
<path class="Black" d="M8,26v4h2h20h2v-2v-2c0-6.6-5.4-12-12-12C13.4,14,8,19.4,8,26z M10,26c0-5.5,4.5-10,10-10c5.5,0,10,4.5,10,10
	v2H10V26z"/>
<path class="Black" d="M14.3,19.8l1.4-1.4l3.7,3.7c0.2,0,0.3-0.1,0.5-0.1c1.1,0,2,0.9,2,2s-0.9,2-2,2c-1.1,0-2-0.9-2-2
	c0-0.2,0-0.3,0.1-0.5L14.3,19.8z"/>
<path class="Blue" d="M18.2,18.2c0.6-0.1,1.2-0.2,1.8-0.2c4.4,0,8,3.6,8,8h-2c0-3.3-2.7-6-6-6L18.2,18.2z"/>
<path class="Red" d="M14.9,22.9c-0.6,0.9-0.9,2-0.9,3.1h-2c0-1.7,0.5-3.3,1.4-4.6L14.9,22.9z"/>
<path class="Blue" d="M14,13.4V8H8v10.8C9.4,16.5,11.5,14.6,14,13.4z"/>
<path class="Red" d="M22,12.2V2h-6v10.6c1.3-0.4,2.6-0.6,4-0.6C20.7,12,21.3,12.1,22,12.2z"/>
</svg>
