<?xml version="1.0" encoding="utf-8"?>
<!-- Generator: Adobe Illustrator 23.0.3, SVG Export Plug-In . SVG Version: 6.00 Build 0)  -->
<svg version="1.1" id="Layer_1" xmlns="http://www.w3.org/2000/svg" xmlns:xlink="http://www.w3.org/1999/xlink" x="0px" y="0px"
	 viewBox="0 0 32 32" style="enable-background:new 0 0 32 32;" xml:space="preserve">
<style type="text/css">
	.Black{fill:#727272;}
</style>
<path class="Black" d="M16,14V8h-4v6h-2V4H6v10H2v14h28V14H16z M6,26H4v-4h2V26z M6,20H4v-4h2V20z M10,26H8v-4h2V26z M10,20H8v-4h2
	V20z M14,20h-2v-4h2V20z M18,20h-2v-4h2V20z M22,20h-2v-4h2V20z M26,20h-2v-4h2V20z"/>
</svg>
