<?xml version="1.0" encoding="utf-8"?>
<!-- Generator: Adobe Illustrator 21.1.0, SVG Export Plug-In . SVG Version: 6.00 Build 0)  -->
<svg version="1.1" id="Layer_1" xmlns="http://www.w3.org/2000/svg" xmlns:xlink="http://www.w3.org/1999/xlink" x="0px" y="0px"
	 viewBox="0 0 32 32" style="enable-background:new 0 0 32 32;" xml:space="preserve">
<style type="text/css">
	.Black{fill:#727272;}
	.Green{fill:#039C23;}
	.Yellow{fill:#FFB115;}
</style>
<path class="Yellow" d="M27,4h-3v22H8V4H5C4.4,4,4,4.4,4,5v24c0,0.6,0.4,1,1,1h22c0.6,0,1-0.4,1-1V4.8C28,4.4,27.6,4,27,4z"/>
<path class="Black" d="M20,4V3c0-0.6-0.4-1-1-1h-6c-0.6,0-1,0.4-1,1v1h-2v3c0,0.6,0.4,1,1,1h10c0.6,0,1-0.4,1-1V4H20z"/>
<polygon class="Green" points="10,18 12,16 14,18 20,12 22,14 14,22 "/>
</svg>
