<?xml version="1.0" encoding="utf-8"?>
<!-- Generator: Adobe Illustrator 23.0.3, SVG Export Plug-In . SVG Version: 6.00 Build 0)  -->
<svg version="1.1" id="Layer_1" xmlns="http://www.w3.org/2000/svg" xmlns:xlink="http://www.w3.org/1999/xlink" x="0px" y="0px"
	 viewBox="0 0 32 32" style="enable-background:new 0 0 32 32;" xml:space="preserve">
<style type="text/css">
	.Black{fill:#727272;}
	.Yellow{fill:#FFB115;}
	.Green{fill:#039C23;}
</style>
<polygon class="Green" points="4,26 4,28 26,28 14,16 "/>
<polygon class="Green" points="4,4 4,20 20,4 "/>
<polygon class="Green" points="26,4 16,14 28,26 28,4 "/>
<polygon class="Yellow" points="16,14 26,4 20,4 4,20 4,26 14,16 "/>
<path class="Black" d="M31,0H1C0.5,0,0,0.5,0,1v30c0,0.5,0.5,1,1,1h30c0.5,0,1-0.5,1-1V1C32,0.5,31.5,0,31,0z M30,30H2V2h28V30z"/>
</svg>
