<?xml version="1.0" encoding="utf-8"?>
<!-- Generator: Adobe Illustrator 23.0.3, SVG Export Plug-In . SVG Version: 6.00 Build 0)  -->
<svg version="1.1" id="Layer_1" xmlns="http://www.w3.org/2000/svg" xmlns:xlink="http://www.w3.org/1999/xlink" x="0px" y="0px"
	 viewBox="0 0 32 32" style="enable-background:new 0 0 32 32;" xml:space="preserve">
<style type="text/css">
	.Blue{fill:#1177D7;}
	.Black{fill:#727272;}
</style>
<rect x="6" y="6" class="Black" width="4" height="2"/>
<rect x="6" y="10" class="Black" width="4" height="2"/>
<rect x="6" y="14" class="Black" width="4" height="2"/>
<rect x="6" y="18" class="Black" width="4" height="2"/>
<path class="Black" d="M4,24V4h14v4h2V3c0-0.6-0.4-1-1-1H3C2.4,2,2,2.4,2,3v22c0,0.6,0.4,1,1,1h11v-2H4z"/>
<path class="Blue" d="M29,6H13c-0.6,0-1,0.4-1,1v22c0,0.6,0.4,1,1,1h16c0.6,0,1-0.4,1-1V7C30,6.4,29.6,6,29,6z M21,25.7
	c-0.9,0-1.3-0.2-1.3-1.3c0-1.2,0.4-1.4,1.3-1.4c1,0,1.3,0.2,1.3,1.4C22.3,25.5,21.9,25.7,21,25.7z M24,16.7l-1.8,2.1
	C22,19,22,19.1,22,19.8v0.3h-2.1c0-1.6,0.2-1.9,0.6-2.5c0.8-1,2.4-2.4,2.4-3.9c0-1-0.6-1.5-1.8-1.5c-0.3,0-1,0.1-2.5,0.5v-1.9
	c1-0.4,1.9-0.6,2.8-0.6c2.5,0,3.9,1.2,3.9,3.3C25.2,14.8,24.9,15.6,24,16.7z"/>
</svg>
