<?xml version="1.0" encoding="utf-8"?>
<!-- Generator: Adobe Illustrator 23.0.3, SVG Export Plug-In . SVG Version: 6.00 Build 0)  -->
<svg version="1.1" id="Layer_1" xmlns="http://www.w3.org/2000/svg" xmlns:xlink="http://www.w3.org/1999/xlink" x="0px" y="0px"
	 viewBox="0 0 32 32" style="enable-background:new 0 0 32 32;" xml:space="preserve">
<style type="text/css">
	.Blue{fill:#1177D7;}
	.Black{fill:#727272;}
</style>
<path class="Blue" d="M29,17L19,27l-4-4l10-10L29,17z M30,16l1.7-1.7c0.4-0.4,0.4-1,0-1.3L29,10.3c-0.4-0.4-1-0.4-1.3,0L26,12L30,16
	z M14,24v4h4L14,24z"/>
<circle class="Black" cx="9" cy="13" r="3"/>
<path class="Black" d="M12.2,16.8c-0.9,0.7-2,1.2-3.2,1.2s-2.3-0.5-3.2-1.2C4,18.5,4,22,4,22h10C14,22,14,18.5,12.2,16.8z"/>
<polygon class="Black" points="16,16 16,18 18,18 20,16 "/>
<polygon class="Black" points="16,12 16,14 22,14 24,12 "/>
<path class="Black" d="M2,24V8h24v2l2-2V7c0-0.5-0.4-1-1-1H1C0.4,6,0,6.5,0,7v18c0,0.5,0.4,1,1,1h11v-2H2z"/>
</svg>
