<?xml version="1.0" encoding="utf-8"?>
<!-- Generator: Adobe Illustrator 23.0.3, SVG Export Plug-In . SVG Version: 6.00 Build 0)  -->
<svg version="1.1" id="Layer_1" xmlns="http://www.w3.org/2000/svg" xmlns:xlink="http://www.w3.org/1999/xlink" x="0px" y="0px"
	 viewBox="0 0 32 32" style="enable-background:new 0 0 32 32;" xml:space="preserve">
<style type="text/css">
	.Black{fill:#727272;}
</style>
<path class="Black" d="M31,4H1C0.4,4,0,4.4,0,5v24c0,0.6,0.4,1,1,1h30c0.6,0,1-0.4,1-1V5C32,4.4,31.6,4,31,4z M20,6v4h-8V6H20z
	 M12,12h8v4h-8V12z M12,18h8v4h-8V18z M2,6h8v4H2V6z M2,12h8v4H2V12z M2,18h8v4H2V18z M2,28v-4h8v4H2z M12,28v-4h8v4H12z M30,28h-8
	v-4h8V28z M30,22h-8v-4h8V22z M30,16h-8v-4h8V16z M30,10h-8V6h8V10z"/>
</svg>
