<?xml version="1.0" encoding="utf-8"?>
<!-- Generator: Adobe Illustrator 23.0.3, SVG Export Plug-In . SVG Version: 6.00 Build 0)  -->
<svg version="1.1" id="Layer_1" xmlns="http://www.w3.org/2000/svg" xmlns:xlink="http://www.w3.org/1999/xlink" x="0px" y="0px"
	 viewBox="0 0 32 32" style="enable-background:new 0 0 32 32;" xml:space="preserve">
<style type="text/css">
	.Blue{fill:#1177D7;}
</style>
<path class="Blue" d="M13,14H3c-0.6,0-1-0.4-1-1V3c0-0.6,0.4-1,1-1h10c0.6,0,1,0.4,1,1v10C14,13.6,13.6,14,13,14z"/>
<path class="Blue" d="M23,14c-5,0-9,4-9,9s4,9,9,9s9-4,9-9S28,14,23,14z M22,28l-4-5l4-5V28z M24,28V18l4,5L24,28z"/>
<path class="Blue" d="M28,13.2c0-0.1,0-0.1,0-0.2V3c0-0.6-0.4-1-1-1H17c-0.6,0-1,0.4-1,1v10c0,0.5,0.3,0.8,0.8,1
	c1.8-1.2,3.9-2,6.2-2C24.8,12,26.5,12.4,28,13.2z"/>
<path class="Blue" d="M14,16.8c-0.1-0.4-0.5-0.8-1-0.8H3c-0.6,0-1,0.4-1,1v10c0,0.6,0.4,1,1,1h10c0.1,0,0.1,0,0.2,0
	c-0.8-1.5-1.2-3.2-1.2-5C12,20.7,12.7,18.5,14,16.8z"/>
</svg>
