<?xml version="1.0" encoding="utf-8"?>
<!-- Generator: Adobe Illustrator 23.0.3, SVG Export Plug-In . SVG Version: 6.00 Build 0)  -->
<svg version="1.1" id="Layer_1" xmlns="http://www.w3.org/2000/svg" xmlns:xlink="http://www.w3.org/1999/xlink" x="0px" y="0px"
	 viewBox="0 0 32 32" style="enable-background:new 0 0 32 32;" xml:space="preserve">
<style type="text/css">
	.Red{fill:#D11C1C;}
	.Black{fill:#727272;}
</style>
<rect x="10" y="16" class="Black" width="6" height="2"/>
<rect x="10" y="12" class="Black" width="6" height="2"/>
<rect x="10" y="20" class="Black" width="6" height="2"/>
<path class="Black" d="M16,28H6V4h14v5c0,0.6,0.4,1,1,1h5v2h2V8l-6-6H5C4.5,2,4,2.5,4,3v26c0,0.5,0.5,1,1,1h11V28z"/>
<path class="Black" d="M31,16H19c-0.6,0-1,0.4-1,1v14c0,0.6,0.4,1,1,1h12c0.6,0,1-0.4,1-1V17C32,16.4,31.6,16,31,16z M30,30H20V18
	h10V30z"/>
<polygon class="Black" points="26,26 26,20 24,20 22,20 22,22 24,22 24,26 22,26 22,28 24,28 26,28 28,28 28,26 "/>
<path class="Red" d="M32,18H18v-3c0-0.6,0.4-1,1-1h12c0.6,0,1,0.4,1,1V18z"/>
</svg>
