<?xml version="1.0" encoding="utf-8"?>
<!-- Generator: Adobe Illustrator 23.0.3, SVG Export Plug-In . SVG Version: 6.00 Build 0)  -->
<svg version="1.1" id="Layer_1" xmlns="http://www.w3.org/2000/svg" xmlns:xlink="http://www.w3.org/1999/xlink" x="0px" y="0px"
	 viewBox="0 0 32 32" style="enable-background:new 0 0 32 32;" xml:space="preserve">
<style type="text/css">
	.Blue{fill:#1177D7;}
</style>
<rect x="8" y="14" class="Blue" width="16" height="2"/>
<rect x="8" y="10" class="Blue" width="10" height="2"/>
<rect x="8" y="18" class="Blue" width="16" height="2"/>
<path class="Blue" d="M22,2H5C4.5,2,4,2.5,4,3v26c0,0.5,0.5,1,1,1h22c0.5,0,1-0.5,1-1V8L22,2z M26,28H6V4h14v5c0,0.6,0.4,1,1,1h5V28
	z"/>
<rect x="8" y="6" class="Blue" width="10" height="2"/>
<rect x="8" y="22" class="Blue" width="16" height="2"/>
</svg>
