<?xml version="1.0" encoding="utf-8"?>
<!-- Generator: Adobe Illustrator 23.0.3, SVG Export Plug-In . SVG Version: 6.00 Build 0)  -->
<svg version="1.1" id="Layer_1" xmlns="http://www.w3.org/2000/svg" xmlns:xlink="http://www.w3.org/1999/xlink" x="0px" y="0px"
	 viewBox="0 0 32 32" style="enable-background:new 0 0 32 32;" xml:space="preserve">
<style type="text/css">
	.Blue{fill:#1177D7;}
</style>
<path class="Blue" d="M12,2H3C2.4,2,2,2.4,2,3v12c0,0.6,0.4,1,1,1h12c0.6,0,1-0.4,1-1V6L12,2z M14,14H4V4h6v3c0,0.6,0.4,1,1,1h3V14z
	"/>
<path class="Blue" d="M28,2h-9c-0.6,0-1,0.4-1,1v12c0,0.6,0.4,1,1,1h12c0.6,0,1-0.4,1-1V6L28,2z M30,14H20V4h6v3c0,0.6,0.4,1,1,1h3
	V14z"/>
<path class="Blue" d="M12,18H3c-0.6,0-1,0.4-1,1v12c0,0.6,0.4,1,1,1h12c0.6,0,1-0.4,1-1v-9L12,18z M14,30H4V20h6v3c0,0.6,0.4,1,1,1
	h3V30z"/>
</svg>
