<?xml version="1.0" encoding="utf-8"?>
<!-- Generator: Adobe Illustrator 23.0.3, SVG Export Plug-In . SVG Version: 6.00 Build 0)  -->
<svg version="1.1" id="Layer_1" xmlns="http://www.w3.org/2000/svg" xmlns:xlink="http://www.w3.org/1999/xlink" x="0px" y="0px"
	 viewBox="0 0 32 32" style="enable-background:new 0 0 32 32;" xml:space="preserve">
<style type="text/css">
	.Yellow{fill:#FFB115;}
	.Black{fill:#727272;}
</style>
<path id="New_Comment" class="Yellow" d="M27,5l2-2v3h3l-2,2l2,2h-3v3l-2-2l-2,2v-3h-3l2-2l-2-2h3V3L27,5z"/>
<rect x="18" y="16" class="Black" width="8" height="2"/>
<rect x="18" y="12" class="Black" width="6" height="2"/>
<circle class="Black" cx="11" cy="13" r="3"/>
<path class="Black" d="M14.2,16.8c-0.9,0.7-2,1.2-3.2,1.2s-2.3-0.5-3.2-1.2C6,18.5,6,22,6,22h10C16,22,16,18.5,14.2,16.8z"/>
<path class="Black" d="M28,14v10H4V8h16V6H3C2.4,6,2,6.5,2,7v18c0,0.5,0.4,1,1,1h26c0.6,0,1-0.5,1-1V14H28z"/>
</svg>
