<?xml version="1.0" encoding="utf-8"?>
<!-- Generator: Adobe Illustrator 23.0.3, SVG Export Plug-In . SVG Version: 6.00 Build 0)  -->
<svg version="1.1" id="Layer_1" xmlns="http://www.w3.org/2000/svg" xmlns:xlink="http://www.w3.org/1999/xlink" x="0px" y="0px"
	 viewBox="0 0 32 32" style="enable-background:new 0 0 32 32;" xml:space="preserve">
<style type="text/css">
	.Green{fill:#039C23;}
	.Yellow{fill:#FFB115;}
	.Black{fill:#727272;}
</style>
<path id="New_Comment" class="Yellow" d="M27,8l2-2v3h3l-2,2l2,2h-3v3l-2-2l-2,2v-3h-3l2-2l-2-2h3V6L27,8z"/>
<path class="Black" d="M20,4V3c0-0.6-0.4-1-1-1h-6c-0.6,0-1,0.4-1,1v1h-2v3c0,0.6,0.4,1,1,1h10c0.6,0,1-0.4,1-1V4H20z"/>
<polygon class="Green" points="10,18 12,16 14,18 18.9,13.1 20.9,15.1 14,22 "/>
<path class="Yellow" d="M27,18h-3l0,0v8H8V4H5C4.4,4,4,4.4,4,5v24c0,0.6,0.4,1,1,1h22c0.6,0,1-0.4,1-1V18v0.8V18H27z"/>
</svg>
