<?xml version="1.0" encoding="utf-8"?>
<!-- Generator: Adobe Illustrator 23.0.3, SVG Export Plug-In . SVG Version: 6.00 Build 0)  -->
<svg version="1.1" id="Layer_1" xmlns="http://www.w3.org/2000/svg" xmlns:xlink="http://www.w3.org/1999/xlink" x="0px" y="0px"
	 viewBox="0 0 32 32" style="enable-background:new 0 0 32 32;" xml:space="preserve">
<style type="text/css">
	.Green{fill:#039C23;}
	.Black{fill:#727272;}
	.st0{opacity:0.5;}
</style>
<path class="Green" d="M6,6h24V3c0-0.6-0.4-1-1-1H3C2.4,2,2,2.4,2,3v26c0,0.6,0.4,1,1,1h3V6z"/>
<g class="st0">
	<rect x="8" y="8" class="Black" width="6" height="4"/>
	<rect x="16" y="8" class="Black" width="6" height="4"/>
	<rect x="24" y="8" class="Black" width="6" height="4"/>
	<rect x="8" y="14" class="Black" width="6" height="4"/>
	<rect x="16" y="14" class="Black" width="6" height="4"/>
	<rect x="24" y="14" class="Black" width="6" height="4"/>
	<rect x="8" y="20" class="Black" width="6" height="4"/>
	<rect x="16" y="20" class="Black" width="6" height="4"/>
	<rect x="24" y="20" class="Black" width="6" height="4"/>
	<rect x="8" y="26" class="Black" width="6" height="4"/>
	<rect x="16" y="26" class="Black" width="6" height="4"/>
	<path class="Black" d="M29,30h-5v-4h6v3C30,29.6,29.6,30,29,30z"/>
</g>
</svg>
