<?xml version="1.0" encoding="utf-8"?>
<!-- Generator: Adobe Illustrator 23.0.3, SVG Export Plug-In . SVG Version: 6.00 Build 0)  -->
<svg version="1.1" id="Layer_1" xmlns="http://www.w3.org/2000/svg" xmlns:xlink="http://www.w3.org/1999/xlink" x="0px" y="0px"
	 viewBox="0 0 32 32" style="enable-background:new 0 0 32 32;" xml:space="preserve">
<style type="text/css">
	.Black{fill:#727272;}
	.st0{fill:#727272;}
	.st1{opacity:0.5;}
</style>
<path class="st0" d="M22,2H7C6.5,2,6,2.5,6,3v26c0,0.5,0.5,1,1,1h20c0.5,0,1-0.5,1-1V8L22,2z M26,28H8V4h12v5c0,0.6,0.4,1,1,1h5V28z
	"/>
<g class="st1">
	<path class="Black" d="M10,12v14h8h2h4v-4v-2v-8H10z M12,14h10v2h-6h-2h-2V14z M18,20h-2v-2h2V20z M12,18h2v2h-2V18z M12,24v-2h2v2
		H12z M16,24v-2h2v2H16z M22,24h-2v-2h2V24z M20,20v-2h2v2H20z"/>
</g>
</svg>
