<?xml version="1.0" encoding="utf-8"?>
<!-- Generator: Adobe Illustrator 23.0.3, SVG Export Plug-In . SVG Version: 6.00 Build 0)  -->
<svg version="1.1" id="Layer_1" xmlns="http://www.w3.org/2000/svg" xmlns:xlink="http://www.w3.org/1999/xlink" x="0px" y="0px"
	 viewBox="0 0 32 32" style="enable-background:new 0 0 32 32;" xml:space="preserve">
<style type="text/css">
	.Green{fill:#039C23;}
	.Black{fill:#727272;}
	.st0{fill:#727272;}
</style>
<path class="st0" d="M24,2H3C2.5,2,2,2.5,2,3v26c0,0.5,0.5,1,1,1h26c0.5,0,1-0.5,1-1V8L24,2z M28,28H4V4h18v5c0,0.6,0.4,1,1,1h5V28z
	"/>
<polygon class="Green" points="6,12 8,10 10,12 14,8 16,10 10,16 "/>
<rect x="18" y="12" class="Black" width="8" height="2"/>
<polygon class="Green" points="6,22 8,20 10,22 14,18 16,20 10,26 "/>
<rect x="18" y="22" class="Black" width="8" height="2"/>
</svg>
