<?xml version="1.0" encoding="utf-8"?>
<!-- Generator: Adobe Illustrator 23.0.3, SVG Export Plug-In . SVG Version: 6.00 Build 0)  -->
<svg version="1.1" id="Layer_1" xmlns="http://www.w3.org/2000/svg" xmlns:xlink="http://www.w3.org/1999/xlink" x="0px" y="0px"
	 viewBox="0 0 32 32" style="enable-background:new 0 0 32 32;" xml:space="preserve">
<style type="text/css">
	.Blue{fill:#1177D7;}
	.Yellow{fill:#FFB115;}
	.Black{fill:#727272;}
</style>
<path class="Blue" d="M29,21L19,31l-4-4l10-10L29,21z M30,20l1.7-1.7c0.4-0.4,0.4-1,0-1.3L29,14.3c-0.4-0.4-1-0.4-1.3,0L26,16L30,20
	z M14,28v4h4L14,28z"/>
<path class="Black" d="M20,4V3c0-0.6-0.4-1-1-1h-6c-0.6,0-1,0.4-1,1v1h-2v3c0,0.6,0.4,1,1,1h10c0.6,0,1-0.4,1-1V4H20z"/>
<path class="Yellow" d="M28,10V4.8C28,4.4,27.6,4,27,4h-3v10L28,10z"/>
<path class="Yellow" d="M12,26H8V4H5C4.4,4,4,4.4,4,5v24c0,0.6,0.4,1,1,1h7V26z"/>
</svg>
